<?xml version="1.0" standalone="no"?>
<!DOCTYPE svg PUBLIC "-//W3C//DTD SVG 20010904//EN"
 "http://www.w3.org/TR/2001/REC-SVG-20010904/DTD/svg10.dtd">
<svg version="1.0" xmlns="http://www.w3.org/2000/svg"
 width="700.000000pt" height="700.000000pt" viewBox="0 0 700.000000 700.000000"
 preserveAspectRatio="xMidYMid meet">
<metadata>
Created by potrace 1.11, written by Peter Selinger 2001-2013
</metadata>
<g transform="translate(0.000000,700.000000) scale(0.100000,-0.100000)"
fill="#000000" stroke="none">
<path d="M2957 6802 c-200 -156 -486 -720 -577 -1138 -46 -212 -64 -495 -41
-654 5 -30 8 -56 7 -57 -1 -2 -40 13 -87 33 -353 149 -874 198 -1318 123 -247
-41 -396 -106 -441 -191 l-24 -46 158 -322 c87 -177 156 -323 154 -324 -1 -1
-148 -78 -325 -171 l-321 -169 22 -62 c28 -77 93 -182 182 -294 96 -121 400
-420 524 -517 216 -167 466 -306 678 -377 56 -18 102 -38 102 -42 0 -5 -31
-47 -69 -94 -133 -166 -236 -337 -324 -540 -217 -500 -279 -1045 -135 -1178
l25 -23 343 56 c189 30 344 54 345 53 1 -2 25 -160 54 -353 29 -192 55 -358
58 -369 5 -16 13 -18 82 -14 60 4 95 13 168 45 452 197 1014 642 1250 990 l57
83 56 -107 c198 -381 531 -698 932 -888 185 -88 407 -145 497 -129 40 7 111
40 111 52 2 31 107 693 112 697 3 3 61 -3 129 -14 152 -25 548 -81 570 -81 11
0 21 22 34 78 15 62 19 114 18 272 -3 574 -166 1186 -413 1551 -22 31 -41 62
-42 69 -2 7 42 24 117 45 363 100 685 286 946 545 135 134 204 224 260 336 43
86 60 176 41 224 -8 20 -76 60 -313 184 -167 88 -305 160 -307 162 -2 1 40 89
94 195 53 107 127 258 165 337 l68 143 -47 34 c-115 84 -418 173 -715 210
-161 20 -468 20 -606 -1 -167 -24 -318 -67 -455 -128 l-58 -27 5 43 c42 305
-16 697 -157 1062 -112 288 -291 581 -402 658 -22 16 -61 32 -87 37 l-46 8
-68 -71 c-38 -39 -148 -153 -245 -254 l-176 -183 -153 158 c-85 87 -201 206
-259 265 l-105 108 -48 -38z m1144 -229 c87 -100 229 -363 303 -564 46 -126
102 -338 122 -469 25 -159 23 -417 -4 -545 -12 -55 -25 -109 -28 -121 -4 -17
1 -22 33 -32 25 -8 46 -24 62 -47 13 -19 28 -35 33 -35 5 0 28 13 52 29 314
216 823 276 1361 161 128 -28 315 -88 315 -102 0 -5 -74 -160 -164 -344 l-164
-333 335 -178 c184 -97 337 -183 340 -190 3 -7 -9 -36 -25 -65 -134 -234 -426
-487 -737 -638 -208 -102 -385 -155 -631 -190 -75 -10 -138 -21 -140 -23 -2
-2 35 -46 82 -98 288 -319 464 -764 530 -1339 15 -136 25 -462 14 -473 -6 -5
-169 18 -489 69 -123 20 -227 32 -231 27 -4 -4 -33 -179 -65 -388 -31 -209
-59 -382 -61 -384 -2 -3 -33 1 -68 7 -272 50 -619 252 -865 501 -205 210 -328
421 -421 726 -24 77 -46 146 -50 154 -4 8 -31 -42 -71 -130 -104 -234 -208
-378 -425 -590 -243 -237 -573 -469 -859 -605 l-90 -43 -7 27 c-4 15 -30 182
-59 372 -28 190 -53 347 -55 348 -1 2 -170 -24 -375 -57 -204 -34 -375 -59
-378 -55 -3 3 -5 58 -5 122 3 266 90 594 238 897 135 275 268 453 478 642 60
53 106 98 104 100 -2 3 -67 13 -143 24 -343 47 -625 177 -955 441 -133 106
-350 324 -459 460 -96 120 -117 154 -103 167 5 4 151 83 326 175 l316 167 -58
122 c-31 67 -107 222 -169 344 -61 123 -111 227 -111 232 0 5 26 18 58 29 274
100 746 120 1110 46 260 -52 428 -122 642 -268 68 -47 126 -83 128 -81 2 2
-17 74 -42 161 -65 219 -79 320 -73 529 6 176 19 270 62 437 71 276 230 621
381 828 l51 70 259 -267 c142 -148 262 -269 265 -271 3 -1 26 19 49 45 96 105
484 503 491 503 4 0 22 -17 40 -37z"/>
</g>
</svg>
